<?xml version="1.0" encoding="UTF-8" standalone="no"?>
<svg
   xmlns:dc="http://purl.org/dc/elements/1.1/"
   xmlns:cc="http://creativecommons.org/ns#"
   xmlns:rdf="http://www.w3.org/1999/02/22-rdf-syntax-ns#"
   xmlns:svg="http://www.w3.org/2000/svg"
   xmlns="http://www.w3.org/2000/svg"
   xmlns:sodipodi="http://sodipodi.sourceforge.net/DTD/sodipodi-0.dtd"
   xmlns:inkscape="http://www.inkscape.org/namespaces/inkscape"
   version="1.1"
   x="0px"
   y="0px"
   viewBox="0 0 1000 1000"
   enable-background="new 0 0 1000 1000"
   xml:space="preserve"
   id="svg3763"
   sodipodi:docname="world_map.svg"
   inkscape:version="0.92.0 r15299"><metadata
     id="metadata3769"><rdf:RDF><cc:Work
         rdf:about=""><dc:format>image/svg+xml</dc:format><dc:type
           rdf:resource="http://purl.org/dc/dcmitype/StillImage" /></cc:Work></rdf:RDF></metadata><defs
     id="defs3767" /><sodipodi:namedview
     pagecolor="#ffffff"
     bordercolor="#666666"
     borderopacity="1"
     objecttolerance="10"
     gridtolerance="10"
     guidetolerance="10"
     inkscape:pageopacity="0"
     inkscape:pageshadow="2"
     inkscape:window-width="1366"
     inkscape:window-height="706"
     id="namedview3765"
     showgrid="false"
     inkscape:zoom="0.472"
     inkscape:cx="857.27921"
     inkscape:cy="488.57904"
     inkscape:window-x="-8"
     inkscape:window-y="-8"
     inkscape:window-maximized="1"
     inkscape:current-layer="svg3763" /><g
     id="g3761"
     style="fill:#000080"><g
       id="g3729"
       style="fill:#000080"><path
         d="M954,459.4c-0.2-13.3-0.8-26.5-2.1-39.5c-4.2-43.3-14.5-84.8-30.1-123.7c-1.2-2.9-2.2-5.8-3.4-8.7c-20.7-48.8-49.7-93.2-85.2-131.6c-2.3-2.5-4.7-5-7.1-7.4c-6.7-7-13.6-13.8-20.8-20.3C724.8,54.9,617.5,10,500,10c-118.5,0-226.5,45.7-307.5,120.3c-18.8,17.4-36.2,36.4-51.9,56.7c-59.3,76.7-94.7,172.9-94.7,277.1c0,245.8,196.4,446.5,440.4,453.8v26.4h-38.7v15.2H300.1V990h399.8v-30.4H580.2v-15.2h-38.7v-28C700,901.9,835.1,805.7,904.4,670.4c16.1-31.4,28.6-64.9,37.1-100c2.1-8.9,4-17.8,5.6-26.9c4.6-25.8,7.1-52.3,7.1-79.4C954.1,462.5,954,461,954,459.4z M868.6,277.9l2.7-3c3.5,6.7,6.7,13.5,9.7,20.4l-4.3-0.2l-8.1,1.1L868.6,277.9L868.6,277.9z M802.9,198.7l0.1-20.3c7.2,7.6,14,15.3,20.6,23.4l-8.2,12.2l-28.6-0.3l-1.8-6L802.9,198.7z M255.1,148.3L255.1,148.3l0-0.8h9.1l0.8-3.1h14.9v6.5l-4.3,5.7h-20.5L255.1,148.3L255.1,148.3z M279.5,176.1l-20.5,1.3l-3.9-4.7l14.6-4.2c0,0,9.1-1.6,9.9-1.6C280.3,167,279.5,176.1,279.5,176.1z M897.5,348.8h-33.2L844,333.7l-21.3,2.1v13h-6.8l-7.3-5.2l-36.9-9.4v-23.9L725,314l-14.5,7.8h-18.6l-9.1-0.9l-22.5,12.5v23.6l-46.1,33.2l3.8,14.2h9.3l-2.4,13.5l-6.6,2.4l-0.3,35.3l39.8,45.3h17.3l1.1-2.7h31.1l9-8.3H734l9.7,9.7l26.3,2.8l-3.5,35l29.3,51.6l-15.4,29.4l1,13.9l12.1,12.1v33.3l15.9,21.4v27.7h13.8c-76.5,94-192.9,154.1-323.2,154.1c-229.8,0-416.8-187-416.8-416.8c0-57.9,11.9-113,33.3-163.1l0,23.7l17.3,8.3v33l16.6,28.3l13.5,2.1l1.7-9.7l-15.9-24.6l-3.1-23.9h9.3l3.9,24.6l23,33.6l-6,10.9l14.6,22.4l36.4,9v-5.9l14.6,2.1l-1.4,10.4l11.4,2.1l17.7,4.8l24.9,28.4l31.8,2.4l3.1,26l-21.8,15.2l-1,23.2l-3.1,14.2l31.5,39.5l2.4,13.5c0,0,11.4,3.1,12.8,3.1c1.4,0,25.6,18.4,25.6,18.4v71.3l8.6,2.4l-5.9,32.9l14.5,19.4l-2.7,32.6l19.2,33.8l24.7,21.5l24.8,0.5l2.4-8l-18.2-15.4l1.1-7.6l3.3-9.3l0.7-9.5l-12.3-0.3l-6.2-7.8l10.2-9.9l1.4-7.4l-11.4-3.2l0.7-6.9l16.3-2.5l24.8-11.9l8.3-15.3l26-33.2l-5.9-26l8-13.9l23.9,0.7l16.1-12.7l5.2-50.2l17.8-22.7L575,563l-16.3-5.2L548,540.1l-36.7-0.4l-29.1-11.1l-1.4-20.8l-9.7-17l-26.3-0.4l-15.2-23.9l-13.5-6.6l-0.7,7.3l-24.6,1.4l-9-12.5l-25.7-5.2L335,475.5l-33.3-5.6l-2.4-37.5l-24.3-4.2l9.7-18.4l-2.8-10.6l-31.9,21.3l-20.1-2.4l-7.2-15.7l4.4-16.2l11.1-20.4l25.5-12.9l49.2,0l-0.1,15l17.7,8.2l-1.4-25.6l12.7-12.8l25.7-16.9l1.8-11.9l25.6-26.7l27.3-15.1l-2.4-2l18.5-17.4l6.8,1.8l3.1,3.9l7-7.8l1.7-0.8l-7.7-1.1l-7.8-2.6V234l4.1-3.4h9.1l4.2,1.8l3.6,7.3l4.4-0.7v-0.6l1.3,0.4l12.8-2l1.8-6.2l7.3,1.8v6.8l-6.8,4.7h0l1,7.4l23.2,7.1c0,0,0,0.1,0.1,0.3l5.3-0.4l0.4-10l-18.3-8.3l-1-4.8l15.2-5.2l0.7-14.6l-15.9-9.7l-1.1-24.6l-21.8,10.7h-8l2.1-18.7l-29.7-7l-12.3,9.3v28.3l-22.1,7l-8.9,18.4l-9.6,1.5v-23.6l-20.8-2.9l-10.4-6.8l-4.2-15.3l37.2-21.7l18.2-5.5l1.8,12.2l10.1-0.5l0.8-6.1l10.6-1.5l0.2-2.2l-4.6-1.9l-1.1-6.5l13-1.1l7.9-8.2l0.4-0.6l0.1,0l2.4-2.5l27.4-3.5l12.1,10.3l-31.7,16.9l40.4,9.5l5.2-13.5h17.6l6.3-11.8l-12.5-3.1V126l-39.1-17.3l-27,3.1l-15.2,8l1,19.4l-15.9-2.4l-2.5-10.7l15.3-13.9l-27.7-1.4l-8,2.4l-3.5,9.3l10.4,1.8l-2.1,10.4l-17.6,1.1l-2.8,6.9l-25.6,0.7c0,0-0.7-14.5-1.7-14.5c-1,0,20.1-0.3,20.1-0.3l15.3-14.9l-8.3-4.2l-11.1,10.8l-18.4-1l-11.1-15.2h-23.6l-24.6,18.4h22.5l2.1,6.6l-5.8,5.4l24.9,0.7l3.8,9l-28.1-1l-1.4-6.9l-17.7-3.8l-9.3-5.2l-21,0.2C324,77,408.5,47.3,500,47.3c105.4,0,201.7,39.4,275.1,104.1l-5,8.8l-19.2,7.5l-8.1,8.8l1.9,10.3l9.9,1.4l6,14.9l17.1-6.9l2.8,20h-5.2l-14-2.1l-15.6,2.6l-15.1,21.3l-21.5,3.4l-3.1,18.5l9.1,2.1l-2.6,11.9l-21.4-4.3l-19.6,4.3l-4.2,10.9l3.4,22.9l11.5,5.4l19.3-0.1l13-1.2l4-10.4l20.4-26.5l13.4,2.7l13.2-11.9l2.5,9.3l32.5,21.9l-4,5.3l-14.7-0.8l5.6,8l9,2l10.6-4.4l-0.2-12.7l4.7-2.4l-3.8-4l-21.7-12.1l-5.7-16.1h18l5.8,5.7l15.5,13.4l0.7,16.2l16.1,17.2l6-23.5l11.2-6.1l2.1,19.2l10.9,11.9l21.7-0.4c4.2,10.8,8,21.8,11.3,33L897.5,348.8z M293.6,216.3l10.9-5.2l9.9,2.4l-3.4,13.2l-10.6,3.4L293.6,216.3z M351.5,247.5v8.6h-24.9l-9.3-2.6l2.3-6l12-4.9h16.4v4.9L351.5,247.5L351.5,247.5z M362.9,259.4v8.3l-6.2,4l-7.8,1.4c0,0,0-12.5,0-13.8H362.9z M355.9,256.1v-9.9l8.6,7.8L355.9,256.1z M359.8,276.1v8.1l-6,6h-13.2l2.1-9.1l6.3-0.5l1.3-3.1L359.8,276.1z M326.8,259.4h13.8l-17.7,24.7l-7.3-3.9l1.6-10.4L326.8,259.4z M383.2,273.2v8.1H370l-3.6-5.2v-7.5h1L383.2,273.2z M371,262.1l3.8-4l6.4,4l-5.1,4.2L371,262.1z"
         id="path3727"
         style="fill:#000080" /></g><g
       id="g3731"
       style="fill:#000080" /><g
       id="g3733"
       style="fill:#000080" /><g
       id="g3735"
       style="fill:#000080" /><g
       id="g3737"
       style="fill:#000080" /><g
       id="g3739"
       style="fill:#000080" /><g
       id="g3741"
       style="fill:#000080" /><g
       id="g3743"
       style="fill:#000080" /><g
       id="g3745"
       style="fill:#000080" /><g
       id="g3747"
       style="fill:#000080" /><g
       id="g3749"
       style="fill:#000080" /><g
       id="g3751"
       style="fill:#000080" /><g
       id="g3753"
       style="fill:#000080" /><g
       id="g3755"
       style="fill:#000080" /><g
       id="g3757"
       style="fill:#000080" /><g
       id="g3759"
       style="fill:#000080" /></g></svg>